<svg width="25" height="26" viewBox="0 0 25 26" fill="none" xmlns="http://www.w3.org/2000/svg">
<path d="M0.721069 4.97131C0.721069 2.76217 2.51193 0.971313 4.72107 0.971313H20.8927C23.1018 0.971313 24.8927 2.76217 24.8927 4.97131V21.1308C24.8927 23.34 23.1018 25.1308 20.8927 25.1308H4.72107C2.51193 25.1308 0.721069 23.34 0.721069 21.1308V4.97131Z" fill="#FF6700"/>
<path d="M19.1437 6.07079H18.368V4.77771H17.0743V6.07079H8.53937V4.77771H7.24564V6.07079H6.47001C5.40008 6.07079 4.52942 6.94101 4.52942 8.0104V19.3877C4.52942 20.454 5.40008 21.3242 6.47001 21.3242H19.1437C20.2136 21.3242 21.0843 20.454 21.0843 19.3846V8.0104C21.0843 6.94101 20.2136 6.07079 19.1437 6.07079ZM19.7905 19.3846C19.7905 19.74 19.4993 20.0311 19.1437 20.0311H6.47001C6.11439 20.0311 5.82315 19.74 5.82315 19.3846V10.854H19.7905V19.3846ZM19.7905 9.56087H5.82315V8.0104C5.82315 7.65496 6.11439 7.36387 6.47001 7.36387H7.24564V8.65694H8.53937V7.36387H17.0743V8.65694H18.368V7.36387H19.1437C19.4993 7.36387 19.7905 7.65496 19.7905 8.0104V9.56087Z" fill="white"/>
<path d="M8.28177 12.2113H6.98804V13.5044H8.28177V12.2113Z" fill="white"/>
<path d="M10.8662 12.2113H9.57251V13.5044H10.8662V12.2113Z" fill="white"/>
<path d="M13.4538 12.2113H12.16V13.5044H13.4538V12.2113Z" fill="white"/>
<path d="M16.0412 12.2113H14.7474V13.5044H16.0412V12.2113Z" fill="white"/>
<path d="M18.6287 12.2113H17.335V13.5044H18.6287V12.2113Z" fill="white"/>
<path d="M8.28177 14.7975H6.98804V16.0906H8.28177V14.7975Z" fill="white"/>
<path d="M10.8662 14.7975H9.57251V16.0906H10.8662V14.7975Z" fill="white"/>
<path d="M13.4538 14.7975H12.16V16.0906H13.4538V14.7975Z" fill="white"/>
<path d="M16.0412 14.7975H14.7474V16.0906H16.0412V14.7975Z" fill="white"/>
<path d="M8.28177 17.3806H6.98804V18.6737H8.28177V17.3806Z" fill="white"/>
<path d="M10.8662 17.3806H9.57251V18.6737H10.8662V17.3806Z" fill="white"/>
<path d="M13.4538 17.3806H12.16V18.6737H13.4538V17.3806Z" fill="white"/>
<path d="M16.0412 17.3806H14.7474V18.6737H16.0412V17.3806Z" fill="white"/>
<path d="M18.6287 14.7975H17.335V16.0906H18.6287V14.7975Z" fill="white"/>
</svg>
